<?xml version="1.0" encoding="UTF-8"?>
<svg width="570px" height="655px" viewBox="0 0 570 655" version="1.1" xmlns="http://www.w3.org/2000/svg" xmlns:xlink="http://www.w3.org/1999/xlink">
    <!-- Generator: Sketch 48.2 (47327) - http://www.bohemiancoding.com/sketch -->
    <title>Slice 1</title>
    <desc>Created with Sketch.</desc>
    <defs></defs>
    <g id="Page-1" stroke="none" stroke-width="1" fill="none" fill-rule="evenodd">
        <g id="Slice-1" fill-rule="nonzero">
            <path d="M555.6631,390.0635 L563.1911,369.5675 L553.9891,351.5845 L551.8951,328.5825 L541.8581,314.3615 L541.8581,293.0295 L529.3111,279.6465 L523.0361,260.4065 L510.0731,250.3685 L502.5431,229.4555 L482.0491,218.5825 L471.1731,201.4335 L451.0971,194.7415 L433.9481,176.7555 L410.5251,177.1745 L392.5421,167.9725 L372.4661,170.8995 L354.8991,167.5535 L337.3331,173.4095 L316.4181,170.4815 L296.7611,182.1925 L275.4311,181.3555 L260.7901,195.5775 L241.9701,196.8325 L226.4951,215.6535 L207.2551,226.9465 L200.9811,246.6035 L185.0881,261.6605 L182.1591,275.0435 L166.6841,288.0095 L160.8281,310.1775 L150.7911,332.3465 L153.7191,347.8235 L148.2821,368.7345 L155.8101,387.1365 C155.8101,387.1365 155.8101,433.9845 208.0931,460.7515 C239.0441,477.0625 275.0151,469.9515 275.0151,469.9515 L282.5431,473.7145 C282.5431,473.7145 293.8381,463.2575 313.0761,466.1865 L315.5851,456.5675 L331.8961,452.8035 L351.5541,454.8935 C351.5541,454.8935 374.1381,454.0585 368.7011,418.9245 C368.7011,418.9245 416.8041,387.1395 430.6051,337.7855 C444.4091,288.4315 396.3061,275.4655 379.5781,277.1385 C362.8501,278.8115 339.4261,282.1585 333.5701,315.6185 L333.0191,318.6675 L361.6831,315.0845 C365.5211,310.6185 373.4341,303.6695 384.1811,305.9935 C399.6531,309.3385 408.4391,326.9035 400.4911,343.6345 C392.5441,360.3655 354.9011,397.5885 354.9011,397.5885 L344.8641,392.5705 L345.5581,388.9585 C338.2611,383.0445 332.0711,374.8545 322.9131,371.5115 L317.6791,373.7535 L315.1691,401.7775 L306.3851,427.2915 L298.0181,423.5275 L281.7071,430.2175 L269.1601,430.2175 L266.6501,435.6565 L247.8301,426.8725 L235.2811,444.4385 C235.2811,444.4385 195.9641,433.9825 189.2721,403.4515 C189.2721,403.4515 214.3681,391.3235 214.3681,376.2655 C214.3681,361.2095 212.6951,361.2095 212.6951,361.2095 C212.6951,361.2095 223.1511,351.1695 216.8771,339.8775 C216.8771,339.8775 228.1681,324.8205 224.8231,313.9455 L235.6981,302.2345 L238.2071,286.3415 L253.2651,279.6495 L257.4471,269.1925 L269.9961,264.1725 L280.4521,251.2075 L291.3251,250.3705 L301.7821,241.1695 L315.1661,241.1695 L329.8041,232.3865 L341.9351,234.0595 L356.1531,229.0405 L368.2841,236.1505 L385.0141,236.9875 L396.7251,242.8425 L409.6921,244.0975 L418.4751,258.3185 L434.7861,261.2465 L440.6421,275.8825 L451.5161,281.7375 L453.1891,297.6315 L469.0831,311.4335 L472.0121,322.3085 L484.9771,361.6235 L482.8871,411.3965 L468.2471,463.6775 L435.2061,508.4315 L420.9841,515.1235 L415.9661,528.0885 L396.7251,528.9245 L385.0161,542.7265 L367.4491,541.8905 L356.9921,553.1845 L337.3351,549.8375 L323.5331,561.1315 L306.8011,555.6945 L290.4901,563.6415 L273.7611,553.1845 L256.1941,557.7845 L243.2271,545.6555 L225.2431,549.8375 L213.5301,539.7975 L198.8911,538.5425 L187.1801,523.9065 L171.2861,518.8865 L165.0131,506.3385 L150.3741,499.2295 L138.6631,479.5695 C138.6631,479.5695 116.0781,467.8575 81.3621,502.1555 C81.3621,502.1555 43.2991,459.0775 38.6981,375.0075 C34.0971,290.9395 67.1401,259.1545 67.1401,259.1545 L91.3981,257.0625 L88.8891,242.8425 L94.3271,242.8425 C94.3271,242.8425 95.5801,235.7335 104.7821,228.6225 C113.9851,221.5115 125.2771,220.2565 125.2771,220.2565 L127.3681,213.1465 L152.8821,203.1085 L164.5921,205.6175 L312.6541,136.1885 C312.6541,136.1885 331.0591,116.5295 328.1301,85.9975 L280.0311,83.9055 C280.0311,83.9055 278.3571,101.4735 264.5551,105.6565 C250.7531,109.8375 245.3161,101.0545 245.3161,101.0545 L214.7841,117.7845 C214.7841,117.7845 198.4721,119.0395 209.7661,102.3095 L234.8601,88.0885 C234.8601,88.0885 230.2571,68.8505 241.9701,61.7395 C253.6821,54.6285 267.9011,60.9025 267.9011,60.9025 L292.5831,19.0695 C292.5831,19.0695 247.8301,-8.9535 218.1331,17.8155 C188.4371,44.5845 104.7861,123.6345 104.7861,123.6345 C104.7861,123.6345 92.6571,138.6905 103.9501,165.8765 L98.9311,177.1695 L89.7291,176.7515 C89.7291,176.7515 87.2201,189.7175 75.9261,197.2455 C64.6331,204.7745 58.3601,203.9385 58.3601,203.9385 L57.1051,214.3965 C57.1051,214.3965 12.7701,260.8235 6.4971,340.7095 C0.2231,420.5935 41.6301,503.4065 54.1771,525.5745 C66.7251,547.7445 84.2911,558.1985 84.2911,558.1985 C84.2911,558.1985 87.6391,568.2315 96.4231,575.3435 C105.2061,582.4555 111.0621,583.7095 111.0621,583.7095 C111.0621,583.7095 117.3361,592.9125 129.0471,598.7675 C140.7571,604.6225 150.7951,604.6225 150.7951,604.6225 C150.7951,604.6225 159.1601,616.7505 170.8711,621.7685 C182.5841,626.7895 190.5301,622.6075 190.5301,622.6075 C190.5301,622.6075 200.1501,634.7365 211.4421,637.2465 C222.7361,639.7545 235.2831,637.2465 235.2831,637.2465 C235.2831,637.2465 247.4121,648.1225 262.0511,647.7025 C276.6891,647.2835 285.8921,640.1745 285.8921,640.1745 C285.8921,640.1745 294.6761,648.1225 308.4771,645.1935 C322.2811,642.2645 330.6441,633.9005 330.6441,633.9005 C330.6441,633.9005 344.8641,640.1715 355.3211,635.5725 C365.7771,630.9725 370.3771,625.5345 370.3771,625.5345 L397.5651,622.1905 L413.8781,608.8055 L437.2991,600.8595 L449.4281,588.3125 L471.5961,580.3655 L480.3811,563.2165 L500.8721,549.4155 L505.8911,537.7035 L520.1131,525.1555 L523.8771,505.9155 L539.7691,489.1895 L543.5351,467.8575 L552.3171,451.9645 L551.8981,428.5415 L559.8461,409.7205 L555.6631,390.0635 Z" id="Fill-1" fill="#CC0304"></path>
            <path d="M400,381.5 C400,381.5 416.5,358 420.5,325.5 C424.5,293 396,283 396,283 C396,283 432,287.5 429,335 C426.5,362 400,381.5 400,381.5" id="Fill-3" fill="#FFFFFF"></path>
            <path d="M363,420.5 C363,420.5 362.5,416 358,408.5 C358,408.5 395.5,393 414,366.5 C414,366.5 411,387 363,420.5" id="Fill-5" fill="#990202"></path>
            <path d="M375.5,300 C375.5,300 368,300.5 360.5,305 C353,309.5 348.5,303.5 355,296 C361.5,288.5 383,280.5 396,283 C396,283 380.5,272.5 361.5,281 C342.5,289.5 335.039,301.836 333.02,318.668 L364,314.5 C364,314.5 365.5,307.5 375.5,300" id="Fill-7" fill="#990202"></path>
            <path d="M347.5,435 C347.5,435 357,438 364.5,424 C364.5,424 370.5,448 353.5,450.5 C336.5,453 335.5,447.5 335.5,447.5 C335.5,447.5 344,444 347.5,435" id="Fill-9" fill="#990202"></path>
            <path d="M328.5,376.5 C328.5,376.5 322.5,392 332,405 C332,405 314.5,412.5 328,426 L330,429.5 L316.5,438.5 C316.5,438.5 306.5,426 309.5,413.5 C312.5,401 317,399 317,399 L317.679,373.754 C317.679,373.754 325.5,373.5 328.5,376.5" id="Fill-11" fill="#990202"></path>
            <path d="M266.5,440 L248,429.5 L238.5,445 C238.5,445 249.5,450.5 266.5,448 L266.5,440 Z" id="Fill-13" fill="#990202"></path>
            <path d="M330,429.5 C330,429.5 342.5,410 348,425 C348,425 348.5,413 334.5,414 C320.5,415 330,429.5 330,429.5" id="Fill-15" fill="#990202"></path>
            <path d="M315,435.5 L309.5,426.5 L303.04,428.958 L298.5,435 L301,446 C301,446 303.5,456 316.5,453 C329.5,450 342,445 342,445 L347.5,435 C347.5,435 340,447 324,436 C324,436 319.5,438.5 315,435.5" id="Fill-17" fill="#990202"></path>
            <path d="M171.5,395 C171.5,395 181.496,464.813 269.998,458.656 L275.015,469.951 C275.015,469.951 227.5,480.5 190.5,449.5 C153.5,418.5 157.5,385 157.5,385 L171.5,395 Z" id="Fill-19" fill="#990202"></path>
            <path d="M178,331.5 C178,331.5 170.5,344 182,348 C193.5,352 200.5,336 213,344.5 L213.5,337 C213.5,337 194.5,346 178,331.5" id="Fill-21" fill="#990202"></path>
            <path d="M210,269 C210,269 202.5,276 207,284.5 C211.5,293 236,287.5 233,299.5 L238.208,286.341 C238.208,286.341 220.5,283.5 210,269" id="Fill-23" fill="#990202"></path>
            <path d="M192,300.5 C192,300.5 179,306 189,315 C199,324 218.5,309 220,325.5 L224,309.5 C224,309.5 205.5,317 192,300.5" id="Fill-25" fill="#990202"></path>
            <path d="M204.6631,244.1685 L203.0001,245.0005 C190.0171,250.2385 186.2701,261.0795 186.0371,271.3325 C159.6301,280.2245 164.0001,309.0005 164.0001,309.0005 C141.5001,326.0005 153.5001,350.5005 153.5001,350.5005 C153.5001,350.5005 138.0001,371.5005 165.5001,390.5005 C193.0001,409.5005 205.0001,388.5005 205.0001,388.5005 C188.8861,393.0445 180.2891,382.9155 177.7881,379.2575 C177.1391,378.5965 177.0001,378.0005 177.0001,378.0005 C177.0001,378.0005 177.2631,378.4895 177.7881,379.2575 C178.9241,380.4155 181.6371,381.7725 188.0001,380.5005 C198.0001,378.5005 197.0001,368.5005 197.0001,368.5005 C159.5001,358.5005 175.0001,329.5005 175.0001,329.5005 L186.0001,336.0005 C164.0001,298.5005 190.5001,295.0005 190.5001,295.0005 C189.5001,266.0005 206.0001,258.5005 206.0001,258.5005 L206.0001,248.4905 C217.1291,221.4935 227.5001,229.5005 227.5001,229.5005 L227.5001,217.5005 C208.1701,218.6245 204.9011,234.7035 204.6631,244.1685" id="Fill-27" fill="#990202"></path>
            <path d="M512.5,484 C512.5,484 515.541,460.443 496.521,459.222 C486,462 477,465.5 472.5,452.5 L469.5,468.5 C469.5,468.5 498.5,463.5 512.5,484" id="Fill-29" fill="#990202"></path>
            <path d="M520.5,446 C520.5,446 498,433.5 481,440 C481,440 476.5,434 481.5,424.5 C481.5,424.5 483.5,431 490.5,432.5 C497.5,434 499.5,423 512,428 C524.5,433 520.5,446 520.5,446" id="Fill-31" fill="#990202"></path>
            <path d="M528.5,412 C528.5,412 506.5,401 486,412.5 L485,393.5 C485,393.5 488.5,406 496.5,403.5 C504.5,401 515.5,392 523.5,398.5 C531.5,405 528.5,412 528.5,412" id="Fill-33" fill="#990202"></path>
            <path d="M532,382 C532,382 506.5,373 488.5,388.5 L484.978,361.623 C484.978,361.623 488,380.5 497.5,375.5 C507,370.5 515.5,364 526,368.5 C536.5,373 532,382 532,382" id="Fill-35" fill="#990202"></path>
            <path d="M528.5,345 C528.5,345 525.5,330 511,333 C496.5,336 497,346.5 490,340.5 C483,334.5 486.5,325.5 493,321 C499.5,316.5 515,311 515,311 C515,311 518.5,294 502,299.5 C485.5,305 496,313 481.5,308.5 C467,304 480,294 480,294 C480,294 486,284 501,278.5 C501,278.5 500.5,272.5 491,271.5 C481.5,270.5 480,272.5 476,280 C472,287.5 454.5,287 458.5,274 C462.5,261 486,255 486,255 C486,255 488,241.5 476.5,242 C465,242.5 467.013,244.758 464,249 C460.987,253.242 443,259.5 443.5,241.5 L454.5,226.5 C454.5,226.5 449,219 441,224.5 C433,230 422.5,241 416,225 L424,209.5 C424,209.5 418.5,204 412.5,209 C406.5,214 395,232 385,211 L390.5,195.5 C390.5,195.5 378.5,194 377.5,202.5 C376.5,211 365,227 355,211.5 L355.5,197 C355.5,197 344,192.5 342,203 C340,213.5 329.5,221.5 323,210.5 C316.5,199.5 308.5,198.5 309,209.5 C309.5,220.5 299,235 290,221.5 C281,208 282,204.5 277.5,210.5 C273,216.5 276,217.5 276,224.5 C276,231.5 267,245 258.5,232.5 C250,220 243,226.5 245.5,235.5 C248,244.5 238.5,261.5 231,247.5 L223.5,244.5 C223.5,244.5 219,258.5 233.5,267.5 C248,276.5 242.5,282.5 242.5,282.5 L256,273 L277.5,256.5 L300,242.5 L332,232.5 L358,230 L382,238 L407.5,245 L418.476,258.318 L434.786,261.246 L440.643,275.882 L451.516,281.737 L453.189,297.632 L468.5,307.5 L472.012,322.309 L478,335.5 L485,356.5 L489,357.5 C489,357.5 503,344 528.5,345" id="Fill-37" fill="#990202"></path>
            <path d="M11.5,332 C11.5,332 27.5,508.5 87.5,537.5 C107,545 117,543 123.5,540 C130,537 138,525.5 138,525.5 C138,525.5 147,530 133.5,544 C120,558 117,556.5 120,563.5 C123,570.5 144,569.5 152,559.5 C160,549.5 168.5,544 165,558.5 C161.5,573 150.5,570 151.5,581 C152.5,592 172,597 179,587 C186,577 195.5,556 194,575 C192.5,594 182,596 194.5,602.5 C207,609 214.5,598.5 216.5,593.5 C218.5,588.5 228.5,569 230.5,589.5 C230.5,600.5 225,612.5 234.5,616 C244,619.5 251,613 253,605.5 C255,598 261.215,571.816 268.857,586.908 C271.5,598 269.5,614 280.5,618 C291.5,622 295.5,615.5 296.5,608.5 C297.5,601.5 305.5,579.5 309.5,598.5 C311,606 321,624 334,609 L334.5,596.5 C334.5,596.5 334.5,566.5 346.5,583.5 C346.5,583.5 350.5,587 348.5,597 C346.5,607 364,616 373,599.5 L370.5,582.5 C370.5,582.5 368,557.5 378.5,567.5 C389,577.5 385,589 385,589 C385,589 400.5,604.5 411,583 L406.5,568 C406.5,568 402.107,550.176 412.804,555.588 C423.5,561 422,576.5 422,576.5 C422,576.5 442.5,585 446,565.5 L439,550 C439,550 431.336,531.834 442.918,536.917 L451,550.5 C451,550.5 470.5,580 475.5,555 L471,539 L463.5,528 C463.5,528 453.5,510.5 467,515.5 C480.5,520.5 475.5,537 475.5,537 C475.5,537 490,554.5 499,543 L496.5,516 L485.5,502 C485.5,502 475,487 485.5,492 C496,497 500.5,512.5 500.5,512.5 C500.5,512.5 508,533.5 516.5,521.5 L507.5,538 C507.5,538 505,553 483.5,561.5 C483.5,561.5 477.5,588 447,588.5 C447,588.5 445.756,611.111 413.878,608.806 C413.878,608.806 403,628.5 375,623 C375,623 354,650.5 331,637 C331,637 311.785,654.35 285.893,640.175 C285.893,640.175 269,658 237.5,638 C237.5,638 213,645 191,625 C191,625 162.09,623.244 150.795,604.622 C150.795,604.622 123,605.5 111,580.5 C111,580.5 92,581 84,556 C84,556 61.5,550.5 38.5,495.5 C15.5,440.5 6,355 11.5,332" id="Fill-39" fill="#990202"></path>
            <path d="M94.5,519.5 C94.5,519.5 117.5,493.5 122.5,500 C127.5,506.5 99,533 94.5,519.5" id="Fill-41" fill="#990202"></path>
            <path d="M121.0967,191.3911 C121.0967,191.3911 118.1697,198.5001 126.5347,201.8471 C134.8987,205.1931 143.2637,199.7561 143.2637,199.7561 L122.3507,210.6301 C122.3507,210.6301 110.2257,212.7221 104.3677,207.7031 C98.5107,202.6831 98.9297,198.0821 98.9297,198.0821 L121.0967,191.3911 Z" id="Fill-43" fill="#990202"></path>
            <path d="M359.085,318.5405 C359.085,318.5405 359.992,317.0505 361.683,315.0845 L333.02,318.6675 L323.533,371.2445 L322.913,371.5115 C332.071,374.8545 338.261,383.0445 345.558,388.9575 L359.085,318.5405 Z" id="Fill-45" fill="#FFFFFF"></path>
            <polygon id="Fill-47" fill="#990202" points="116.0781 193.9009 96.8391 199.3379 96.4211 194.3179 103.5311 170.8959 117.3331 184.2809"></polygon>
            <path d="M139.9189,155.8389 C139.9189,155.8389 140.3529,148.6809 145.9919,147.2409 C151.6309,145.8009 157.0689,147.8939 161.6689,152.4929 C161.6689,152.4929 154.5589,130.7449 140.3379,139.9459 C129.4629,146.2199 139.9189,155.8389 139.9189,155.8389" id="Fill-49" fill="#990202"></path>
            <path d="M267.4888,432.7227 C267.4888,432.7227 266.2338,447.7827 269.9978,458.6567 C273.7628,469.5297 284.6388,473.7117 284.6388,473.7117 C284.6388,473.7117 287.1448,467.8557 296.3468,466.6017 C305.5488,465.3467 314.3328,466.1837 314.3328,466.1837 L313.4958,454.4727 C313.4958,454.4727 304.2968,455.3077 299.6948,444.4347 C295.0918,433.5607 303.0398,428.9577 303.0398,428.9577 L298.0188,423.5277 C298.0188,423.5277 284.2218,433.5587 267.4888,432.7227" id="Fill-51" fill="#FFFFFF"></path>
            <path d="M100.6035,177.1709 L96.8395,196.4099 L104.3685,207.7029 C104.3685,207.7029 115.6605,211.4659 123.6075,211.8849 L125.2765,220.2559 C125.2765,220.2559 98.9235,221.9359 94.3265,242.8419 C94.3265,242.8419 77.5995,239.9089 67.5605,231.1259 C57.5225,222.3419 58.3595,203.9389 58.3595,203.9389 C58.3595,203.9389 89.3115,196.4089 89.7285,176.7519 L100.6035,177.1709 Z" id="Fill-53" fill="#FFFFFF"></path>
            <path d="M267.9014,60.9023 L292.5834,19.0693 C292.5834,19.0693 283.3294,13.2903 270.4594,9.4883 L244.5664,60.4083 C255.6814,55.5293 267.9014,60.9023 267.9014,60.9023" id="Fill-55" fill="#CC0304"></path>
            <path d="M273,463.5 C273,463.5 280.5,449 305,451.5 L316.5,453 L314,468.5 L297,468.5 L285.5,477 L273,463.5 Z" id="Fill-57" fill="#CC0304"></path>
            <path d="M150.6128,204.0015 L152.8818,203.1085 L164.5918,205.6175 L312.6548,136.1885 C312.6548,136.1885 321.5008,126.7125 325.9478,110.7225 L271.8328,101.4075 C269.8868,103.2285 267.5128,104.7605 264.5548,105.6565 C250.7528,109.8375 245.3168,101.0545 245.3168,101.0545 L214.7838,117.7845 C214.7838,117.7845 198.4718,119.0395 209.7658,102.3095 L234.8598,88.0885 C234.8598,88.0885 230.2578,68.8505 241.9698,61.7395 C242.8228,61.2205 243.6928,60.7925 244.5668,60.4085 L270.4598,9.4885 C255.0068,4.9225 234.3348,3.2105 218.1338,17.8155 C188.4368,44.5845 104.7858,123.6345 104.7858,123.6345 C104.7858,123.6345 92.6568,138.6905 103.9498,165.8765 L103.7948,166.2275 C109.8018,174.0305 116.2088,181.4775 121.0978,189.2995 C121.0978,189.2995 129.4658,191.3915 140.3398,178.4255 C140.3398,178.4255 145.7768,166.7145 136.9928,156.6775 C136.9928,156.6775 130.7208,143.7105 141.5938,139.5275 C152.4678,135.3455 172.1258,144.9655 164.5978,168.8055 C157.0698,192.6465 143.6848,203.1025 143.6848,203.1025 L150.6128,204.0015 Z" id="Fill-59" fill="#990202"></path>
            <path d="M346.5,377.832 L336.5,359.832 L344.5,320.165 L336.833,321.832 L325.833,372.499 C325.833,372.499 339.499,379.5 342.166,389.166 L346.5,377.832 Z" id="Fill-61" fill="#CC0304"></path>
            <path d="M328.1299,85.9976 L280.0309,83.9056 C280.0309,83.9056 278.9699,94.7306 271.8329,101.4076 L325.9479,110.7226 C327.9129,103.6646 329.0269,95.3486 328.1299,85.9976" id="Fill-63" fill="#CC0304"></path>
            <path d="M201,106.5 C201,106.5 191,115.5 199,126 C207,136.5 240.5,120.5 245.5,115.5 C250.5,110.5 263.5,127.5 281,105 L275,101 C275,101 257.133,112.609 245.316,101.055 L214.784,117.784 C214.784,117.784 203,120.5 201,106.5" id="Fill-65" fill="#CC0304"></path>
            <path d="M62.8335,208.8335 C62.8335,208.8335 64.8335,223.5005 77.1665,225.8335 C77.1665,225.8335 80.8335,212.1665 101.5005,207.8335 L105.8335,208.1665 C105.8335,208.1665 115.8685,212.4275 122.3515,210.6305 L123.5005,219.5005 L92.8335,241.5005 L69.8335,235.8335 L60.8335,218.5005 L62.8335,208.8335 Z" id="Fill-67" fill="#CC0304"></path>
            <path d="M238.166,22.4995 C201.833,46.1665 130.833,117.1665 130.833,117.1665 L130.833,123.4995 C232.649,42.0455 243.358,36.7495 258.098,33.7885 L266.301,18.0245 C257.7,16.3505 247.459,16.5455 238.166,22.4995" id="Fill-69" fill="#CC0304"></path>
            <path d="M266.3013,18.0244 L258.0973,33.7884 C258.5583,33.6954 259.0243,33.6004 259.4993,33.4994 C275.1663,30.1664 280.8333,40.1654 280.8333,40.1654 L285.8323,25.4994 C285.8323,25.4994 277.4433,20.1924 266.3013,18.0244" id="Fill-71" fill="#FFFFFF"></path>
            <path d="M331.4951,590.5205 C330.2581,581.0185 324.7441,568.6425 318.8471,564.6225 C309.8291,558.4735 295.6871,562.2865 294.7561,573.6575 C299.5251,581.3455 299.9431,595.8825 299.5741,606.7835 C300.5271,608.7025 301.0551,608.9155 303.1871,608.5895 C307.1941,605.5605 308.1031,600.5185 308.0071,594.7355 C317.0561,602.4625 309.7711,623.9225 295.9611,617.6225 C294.0781,623.3695 290.8181,627.7405 288.1301,632.6795 C316.2001,653.3145 335.5571,621.6805 331.4951,590.5205 M277.2901,636.8975 C285.3481,631.6565 295.1361,613.2435 295.3591,599.5555 C295.7601,574.7965 280.8051,551.6645 256.2101,564.0215 C260.6211,576.9775 257.7781,596.3295 255.0051,606.7835 C268.8601,613.6325 269.6061,595.1965 268.8571,586.9085 C280.5501,600.2385 267.0981,629.6115 250.7891,616.4185 C247.5461,621.8085 242.5671,625.4625 239.9481,631.4765 C249.7271,642.8845 267.0521,643.5525 277.2901,636.8975 M341.7341,632.6795 C385.5351,639.2795 373.7301,562.4015 348.3581,555.5875 C340.6601,553.5225 329.6961,557.7005 328.4821,568.8385 C333.8311,576.7435 335.4651,588.3575 337.5181,599.5555 C348.9591,602.0945 347.6571,587.1335 345.3491,581.4865 C357.5321,587.5225 355.3371,622.8075 336.3131,613.4085 C335.4471,617.9605 334.2051,622.1415 332.7011,626.0545 C334.8961,629.0775 338.2911,630.9035 341.7341,632.6795 M233.9251,629.0675 C251.8731,615.1875 263.9401,567.6425 242.3561,554.3845 C235.3751,553.8165 230.4911,553.3525 225.4941,556.7935 C227.8951,573.9155 221.7301,587.8765 216.4591,600.7585 C226.2121,603.4465 227.8941,592.9515 230.3111,586.3045 C235.8401,599.1365 221.6881,617.2625 208.0281,609.1925 C205.6181,613.6085 200.0971,614.9125 197.7881,619.4315 C201.8371,629.8645 223.0481,637.4805 233.9251,629.0675 M406.1781,606.1805 C417.2501,584.8745 400.0781,549.8065 383.2931,545.3495 C369.8241,543.7275 363.8141,549.5615 361.0071,558.5995 C368.5971,566.2685 372.4411,577.6815 375.4631,589.9165 C388.0901,587.4575 377.7671,572.6035 377.8721,565.8265 C389.7821,570.3735 398.0701,603.4745 376.0631,600.7585 C376.1671,605.8005 375.3411,608.0555 374.8601,614.0095 C388.1661,620.7425 401.4111,615.3525 406.1781,606.1805 M221.2781,565.2245 C220.9481,551.0005 208.6651,541.1735 196.5831,545.3495 C196.8071,562.4355 189.8071,572.2995 184.5371,583.8955 C192.3261,583.4525 191.2121,574.1065 195.9811,570.6445 C196.1021,583.5525 188.4601,599.2035 173.0961,594.7355 C169.4071,599.0785 161.0111,598.7135 156.8331,602.5655 C182.1761,638.3485 222.0791,599.8205 221.2781,565.2245 M428.4641,539.3275 C417.1931,529.2835 395.1051,528.6485 390.5201,544.7465 C402.4331,550.4995 408.9331,561.6665 412.2021,576.0665 C424.5051,573.9515 414.0791,559.6395 412.8041,555.5875 C427.0851,555.9855 434.0511,589.7635 414.0071,586.9085 C414.3991,592.3165 413.4801,596.4165 413.4071,601.3625 C452.7701,605.1715 448.4691,557.1595 428.4641,539.3275 M158.6401,596.5445 C177.3831,591.8115 191.8691,566.9935 191.7661,547.1555 C191.6911,532.9905 182.2241,523.0405 168.2761,525.4735 C167.3881,545.4635 157.0951,556.0505 147.7991,567.6335 C160.0991,571.2365 161.1441,559.0905 167.0721,554.3845 C167.5941,568.8705 150.3041,583.7245 135.7531,575.4625 C131.8931,579.3685 121.6631,578.9735 117.6851,580.8845 C123.4261,594.5245 144.3391,600.1545 158.6401,596.5445 M425.4531,517.6445 C421.9261,520.2425 421.3891,524.8245 420.6351,529.6895 C432.0491,534.7355 439.6281,543.6225 444.1211,555.5875 C453.0331,551.6815 442.3451,541.5135 442.9181,536.9165 C454.3921,539.4655 465.2591,566.4125 448.3401,570.6445 C449.2921,573.7065 448.3611,578.6515 449.5431,581.4865 C497.8521,582.1825 462.8431,497.9165 425.4531,517.6445 M123.1041,544.7465 C133.8101,546.8545 135.2381,534.9185 141.7771,530.8955 C143.4921,543.2145 117.8071,563.0365 109.2521,550.7705 C103.4021,553.6805 97.4951,554.9775 91.1841,556.1905 C101.9011,588.0755 140.0351,573.7385 153.8221,553.1785 C163.1111,539.3265 172.7491,507.1725 149.6051,504.3935 C146.2811,523.3535 133.9451,533.3045 123.1041,544.7465 M494.1111,547.7585 C505.0241,519.1555 481.5961,490.0515 453.1581,491.7455 C446.2661,494.6935 444.0061,502.2705 442.3161,510.4165 C454.5111,514.4855 462.7891,522.4665 470.6241,530.8955 C477.4661,525.0305 465.3741,519.5105 467.0091,513.4285 C477.5191,516.0075 492.4901,538.3325 476.0441,544.1455 C476.2251,548.5825 478.7041,550.7185 478.4531,555.5875 C484.0601,553.3685 490.4131,551.8905 494.1111,547.7585 M495.9201,473.0765 C482.1031,466.7545 456.2511,468.7545 460.9871,486.3275 C475.5741,489.6055 485.1271,497.9205 493.5111,507.4055 C496.4271,497.7955 484.6301,494.6685 483.2711,489.3355 C494.4711,493.7955 504.4991,499.4275 505.5561,514.0325 C504.0191,516.3085 501.1241,517.2295 499.5321,519.4505 C500.1121,523.8885 502.6981,526.3245 502.5431,531.4985 C526.5481,519.9665 514.9941,481.8005 495.9201,473.0765 M521.8151,450.1885 C510.5411,442.1305 492.5901,437.0355 478.4531,444.1655 C475.1201,449.2645 473.3911,455.9665 473.6351,464.6425 C487.4401,464.4585 500.3851,470.9385 509.1681,475.4855 C510.4551,466.9315 501.0491,463.9585 496.5201,459.2215 C511.7481,454.7175 530.0591,476.5775 516.3951,488.1325 C517.9121,491.6375 519.8611,494.7065 520.6131,498.9745 C544.7041,491.3745 537.0791,461.0965 521.8151,450.1885 M249.5851,433.3255 C245.1771,434.7375 243.6791,439.0645 244.1651,445.3715 C250.0551,447.5395 257.5691,447.5015 264.6431,446.5745 L264.6431,441.7555 C258.8671,439.7025 253.6641,437.0775 249.5851,433.3255 M300.1781,436.9375 C302.6441,437.7925 307.5121,436.3955 311.6191,436.9375 C311.1441,426.9025 302.3051,430.3765 300.1781,436.9375 M270.0621,435.1315 C267.7301,451.0955 272.7361,462.8275 283.3111,467.6545 C289.0401,461.8195 299.4221,459.5945 309.2101,461.0305 C309.7181,459.5285 310.0001,457.8025 309.8131,455.6095 C299.6501,455.6665 297.3711,445.4655 296.7641,433.9775 C297.8621,432.2665 301.2311,431.7695 300.1781,427.9045 C291.8931,432.2125 281.2091,439.0625 270.0621,435.1315 M339.9281,443.5645 C345.9791,437.3125 351.0641,420.8145 340.5301,415.8595 C332.0571,414.0135 327.6641,419.4525 329.6891,426.0985 C331.1941,424.3895 331.2611,421.2435 333.9041,420.6775 C334.9741,435.8425 316.7911,445.1355 301.3811,439.9505 C302.5281,460.8645 328.0931,445.5835 339.9281,443.5645 M538.0791,460.4275 C545.6711,461.2855 548.5541,447.1735 547.7161,439.3465 C545.1601,415.5005 510.9521,401.3095 488.0891,415.2565 C484.0051,420.2725 481.9121,430.7195 486.2811,436.3365 C496.4581,433.9595 507.2181,438.8095 516.3951,441.1555 C524.9011,433.4355 508.5261,427.6985 502.5431,426.6995 C517.4251,422.9225 538.6651,435.7495 527.8411,448.9855 C532.6631,451.2095 533.0551,459.8595 538.0791,460.4275 M173.0961,421.8805 C190.6031,449.5715 232.7351,473.2795 271.2661,464.6425 C268.9141,459.9695 265.8431,456.0135 265.2441,449.5855 C221.0901,454.7245 191.7861,431.7155 179.1181,399.5965 C173.2891,397.3925 168.3141,394.3395 162.8561,391.7665 C161.5611,400.9025 167.7351,413.4035 173.0961,421.8805 M553.7391,405.6205 C552.7151,375.0595 475.8241,372.2755 489.2941,408.6325 C500.6321,404.1425 512.3791,403.8315 523.6251,406.2235 C522.6781,395.7345 511.3821,399.5595 504.9521,399.5965 C515.4341,389.1075 543.8821,396.9425 537.4761,414.0505 C540.9341,417.2195 543.7351,421.0445 546.5101,424.8925 C551.1021,419.2395 553.9761,412.7565 553.7391,405.6205 M193.5721,394.1755 C203.2441,390.7395 212.7491,378.6215 207.4241,364.6645 C199.4561,370.9875 193.0191,374.9745 179.1181,372.4945 C179.3001,378.4495 185.6821,380.3455 190.5611,379.7215 C180.8961,385.6625 166.6131,377.8195 166.4691,366.4695 C163.2491,362.4625 158.9671,359.5195 156.2311,355.0285 C147.2811,378.0275 172.9261,401.5105 193.5721,394.1755 M555.5451,380.9265 C562.3521,365.5195 546.8721,351.4245 536.2721,348.4035 C514.2231,344.4875 475.6841,356.0335 491.7031,383.3355 C499.5131,377.8485 515.0821,375.9075 526.0341,377.3125 C527.2551,376.6305 524.7341,374.6435 525.4321,372.4945 C520.8941,368.0585 510.8541,370.3105 505.5561,370.6885 C512.0661,360.3215 546.8161,364.2545 537.4761,380.3245 C545.8871,384.3825 551.0931,391.0035 555.5451,380.9265 M340.3661,322.3035 C336.5931,339.4105 332.5281,353.8515 329.6891,371.8915 C334.8301,374.5805 338.9051,378.3335 341.7341,383.3355 C342.7831,359.2825 352.3961,339.7625 353.0151,319.2915 C349.6131,320.1205 345.8491,320.7475 340.3661,322.3035 M527.8411,314.0735 C502.7401,310.1995 471.8981,329.7515 488.0891,354.4245 C497.2561,349.2665 508.5331,343.2455 521.2161,343.5855 C521.5711,341.5295 522.8681,340.4185 523.0221,338.1645 C520.8361,335.6505 518.8231,333.6745 515.7961,333.3465 C509.9741,332.7145 506.5801,338.4655 502.5431,338.1645 C507.0441,322.2845 538.7721,325.7915 536.8731,344.7895 C541.4121,345.0715 543.5571,347.7425 547.1131,349.0035 C553.9761,332.1035 542.4731,316.3315 527.8411,314.0735 M161.0491,318.8915 C152.8051,332.4745 159.4041,355.1505 168.8781,362.8585 C186.3031,374.6775 214.9501,365.2595 211.0381,339.3675 C200.9321,342.5805 189.1751,340.8575 181.5271,335.7555 C178.1221,344.6365 186.1381,347.1615 191.1631,349.6075 C176.0851,353.7465 165.0081,338.8765 173.0961,327.3225 C170.4071,323.1855 169.0571,317.7075 166.4691,313.4705 C164.3871,314.7745 162.4151,316.6405 161.0491,318.8915 M368.8361,379.1185 C384.5271,361.9805 413.2701,329.5725 385.7021,310.4575 C370.8211,306.8215 371.6691,318.9125 363.4161,321.9015 C358.8201,345.0115 352.5221,366.4165 349.5641,391.1665 C356.1101,393.2115 363.8791,384.5365 368.8361,379.1185 M401.9621,382.1295 C411.1271,370.2345 424.5091,350.0925 426.6561,333.3465 C429.2511,313.1135 417.3211,293.9885 405.5771,287.5725 C380.1761,273.6975 339.9741,284.9075 339.3261,315.8785 C344.6031,314.9965 353.2191,312.6065 359.8031,311.0615 C364.4051,303.6245 370.2361,299.0305 379.6791,299.0155 C399.9261,298.9825 411.1841,313.8195 408.5871,333.9475 C406.0621,353.5105 385.1751,378.1115 370.6441,389.9595 C365.7601,393.9425 356.2811,403.1055 352.5751,403.2105 C348.7111,403.3215 344.0231,398.5135 339.9281,398.9935 C338.7651,387.1095 335.5901,377.2335 323.6641,376.1095 C322.0161,383.3065 318.9251,393.3855 321.8591,401.4025 C313.4951,408.4145 309.7131,426.6785 319.4501,435.1315 C322.0201,433.4875 324.0551,431.3055 326.6771,429.7105 C317.6551,413.0655 340.6481,405.1865 348.9621,417.0625 C356.7661,428.2125 347.0601,441.7555 339.9281,448.3815 C360.1371,450.0955 365.8681,432.7225 361.6091,415.2565 C377.2621,408.2325 391.0341,396.3145 401.9621,382.1295 M503.7501,279.7425 C485.7061,284.7895 462.4161,311.0145 481.4631,326.7195 C488.0531,318.4525 498.1551,313.6995 510.3741,311.0615 C511.0751,308.3495 512.4391,306.3015 512.1801,302.6295 C504.3551,296.2435 498.4381,305.5635 492.3051,308.0485 C494.7831,292.7495 527.9421,286.0235 526.6341,309.2535 C530.6971,309.6075 532.7411,311.9815 536.8731,312.2655 C542.0251,287.1135 523.3701,274.2525 503.7501,279.7425 M177.5621,280.2695 C169.0931,285.2885 169.7101,298.9505 170.6851,307.4475 C172.0821,319.6075 182.0181,333.0335 191.7661,335.7555 C207.3181,340.0955 221.7581,331.1335 219.4711,313.4705 C207.9541,315.5175 198.6201,310.8015 192.9701,305.0385 C187.0001,310.5975 193.4941,317.5835 198.3911,319.4925 C183.9661,323.4645 172.4581,300.0835 186.3451,293.5945 C185.1791,288.9385 185.9631,282.3325 183.3321,279.1395 C182.9321,279.1395 179.4441,278.3875 177.5621,280.2695 M457.9761,279.1395 C455.2481,292.0155 461.8261,299.9585 470.6241,303.2305 C474.3201,290.8675 484.1391,284.6255 494.1111,278.5375 C487.2711,269.7215 478.4421,281.6245 474.2351,282.7545 C475.2741,267.8425 502.0681,261.4455 509.7701,274.3215 C516.0721,273.6435 520.1721,275.1635 524.2241,276.7305 C520.3781,240.1365 465.2031,256.6545 457.9761,279.1395 M217.0621,309.2535 C226.7901,307.7015 233.0681,298.4945 232.1201,286.9695 C223.3091,285.1375 216.9631,280.8455 212.2421,274.9245 C211.5761,278.0715 209.9191,280.2285 209.8331,283.9585 C211.8411,287.1715 215.9671,288.2665 217.0621,292.3905 C202.8651,292.2815 194.4721,272.6625 205.0151,262.2755 C203.3141,259.1595 203.7011,253.9555 202.0051,250.8325 C178.2571,262.4655 190.0851,313.5615 217.0621,309.2535 M68.2971,252.6395 C72.7271,254.8925 81.5601,256.2045 86.9681,253.8445 C85.4521,250.7425 85.4901,246.0865 84.5581,242.4015 C78.9311,241.8065 74.9911,239.5215 70.1041,238.1845 C69.4421,242.9445 67.9431,246.8655 68.2971,252.6395 M439.9071,258.6625 C439.6291,268.5485 446.6341,274.4455 454.3611,274.9245 C459.6301,264.3325 469.0381,257.8815 480.8621,253.8445 C481.0491,251.6495 480.7661,249.9245 480.2601,248.4235 C472.1701,243.6565 465.2521,252.3165 460.9871,253.2425 C462.9711,240.3515 491.2751,232.3815 493.5111,250.2295 L504.9521,250.2295 C501.0681,204.3675 440.8431,225.3605 439.9071,258.6625 M44.2051,243.6055 C39.7231,250.8795 35.3801,257.8875 31.5581,265.8895 C20.8651,288.2815 10.9881,327.0755 12.8871,359.8455 C16.4651,421.5615 30.3031,471.4235 55.6491,514.0325 C62.6541,525.8045 70.7151,541.5775 79.7411,547.7585 C81.0301,548.6405 86.2141,550.5485 88.1721,550.7705 C105.7881,552.7425 129.3251,535.3765 137.5601,521.8595 C143.1721,512.6505 143.1981,497.7145 139.3661,488.1325 C138.6641,485.4215 135.5281,483.2265 132.7421,483.3145 C110.2711,483.1285 99.9481,495.0895 88.7751,506.2015 C93.3991,521.8195 120.7061,520.1565 120.6961,501.9845 C119.3701,499.9475 114.6641,504.0835 114.6731,501.3835 C115.2091,497.6885 120.3041,497.4615 123.7071,498.3725 C129.7171,511.5725 108.2461,529.1555 95.3991,527.2805 C92.4981,526.8585 86.5151,522.5545 84.5581,520.6565 C82.7291,518.8785 80.7621,515.1835 78.5361,512.2225 C54.5521,480.3195 38.9161,438.2445 33.9671,388.1545 C29.6111,344.0635 38.6041,292.0325 53.2401,262.8785 C55.9651,257.4515 60.6661,253.2745 62.8761,247.8215 C67.1091,237.3835 63.9471,229.4365 59.8661,221.9235 C54.3071,229.6565 48.8051,236.1455 44.2051,243.6055 M214.0511,268.9015 C222.5161,280.4585 245.6281,290.0945 250.7891,268.9015 C239.6271,267.0125 233.6101,259.9805 228.5051,252.0375 C223.4251,256.9265 229.4641,262.5295 232.1201,265.2875 C221.2921,268.7425 211.3441,242.4515 225.4941,238.1845 C225.3931,231.8605 225.3111,225.5555 226.6981,220.7185 C206.1461,224.1475 202.7161,253.4275 214.0511,268.9015 M414.6101,236.9795 C412.9101,250.9165 423.3061,254.8345 435.0891,255.0485 C436.3501,244.0635 442.4721,237.9405 447.1341,230.3545 C439.1201,223.7195 433.6201,234.5915 430.8731,240.5935 C427.2151,225.5955 447.7121,212.6125 460.3851,222.5255 C463.8791,221.7655 469.2871,218.8945 474.8401,218.3095 C465.3281,182.1865 417.9501,209.5915 414.6101,236.9795 M258.0161,264.0825 C265.0171,263.0745 270.2721,257.4445 272.4711,250.2295 C264.4871,245.9695 257.0181,241.1905 256.2101,229.7525 C246.9821,232.7355 252.4841,245.7785 256.2101,248.4235 C240.9111,248.5975 239.0951,218.8855 255.0051,215.9005 C255.8251,209.8935 257.5841,204.8285 258.6191,199.0365 C221.5331,193.5845 222.2071,269.2445 258.0161,264.0825 M264.0391,236.9795 C269.2111,246.7945 288.9771,250.5695 295.9611,239.3885 C289.4201,234.6885 286.8751,225.9895 285.7211,215.9005 C283.3261,216.0865 282.6971,214.5085 280.3021,214.6965 C275.0901,218.2055 279.2061,224.8525 279.0981,229.1505 C267.3161,223.9135 271.4311,198.6125 288.1301,201.4455 C288.1271,194.2135 292.4791,191.3405 294.1531,185.7865 C266.7211,177.8215 252.9721,215.9765 264.0391,236.9795 M64.0801,209.8775 C63.0811,228.7085 73.9331,237.6565 90.5811,236.9795 C92.6651,228.7515 99.5351,224.6955 106.2421,220.7185 C110.8211,218.0015 117.8481,218.2095 120.0941,212.8885 C101.0831,214.4275 93.4521,202.0735 94.1951,185.7865 C95.7581,184.6895 98.5071,182.4115 96.6051,179.7635 L94.1951,179.7635 C90.2361,195.8795 79.1161,204.8355 64.0801,209.8775 M388.1111,229.7525 C390.5631,237.3865 401.7831,241.3265 408.5871,239.3885 C409.9201,228.6775 414.3071,221.0165 418.8251,213.4915 C411.3091,208.2125 407.1871,218.1075 406.1781,224.9345 C400.8551,209.2965 418.4031,192.8765 430.8731,203.8545 C434.0891,199.8435 440.9231,199.4525 445.3271,196.6265 C430.1721,157.1375 377.3911,196.4205 388.1111,229.7525 M99.0151,196.6265 C103.8401,195.4305 107.8861,193.4545 112.8671,192.4125 C113.6921,190.4255 113.6721,187.5945 114.0711,185.1835 C110.7251,182.1045 108.1861,178.2195 105.0371,174.9445 C102.9451,182.0875 100.0651,188.4435 99.0151,196.6265 M299.5741,235.1725 C308.1461,241.8545 320.5701,235.6565 326.6771,229.7525 C321.9141,224.0745 319.6751,215.8745 318.2441,206.8665 C307.4291,206.2715 315.0991,218.0895 314.0281,222.5255 C300.6031,214.5725 308.5991,189.8175 324.2671,190.0015 C326.6741,185.3825 330.5021,182.1835 332.7011,177.3545 C302.7831,162.7305 278.1761,215.2255 299.5741,235.1725 M366.4281,185.1835 C364.5311,187.8525 359.7751,196.1025 359.2001,197.8315 C353.0631,216.2745 361.9311,239.0145 382.6891,230.9575 C380.6361,220.4915 382.3711,209.6885 385.7021,201.4455 C378.1871,201.7625 378.2421,209.6455 377.2691,216.5025 C368.0501,205.7635 378.4181,185.3385 394.1331,190.0015 C396.7091,185.3505 402.1371,183.5495 404.9741,179.1615 C391.7521,165.9845 375.3441,172.6555 366.4281,185.1835 M329.6891,225.5375 C338.0541,229.0045 347.4741,227.3265 354.3821,223.7295 C353.2521,217.1865 351.0021,208.2595 353.1791,202.0485 C348.9101,198.3945 343.8741,202.0165 343.5401,206.8665 C343.2811,210.6915 347.2121,212.7345 345.9491,215.9005 C332.8451,208.5115 343.0301,183.4325 359.2001,188.7965 C360.0361,182.2055 365.9341,180.6735 367.6331,174.9445 C340.3811,162.7075 313.3581,201.5285 329.6891,225.5375 M117.6851,209.8775 C142.9261,204.4755 171.4121,180.5405 159.2421,150.2505 C154.2051,140.3005 132.2741,137.8555 138.7651,154.4675 C139.2871,150.4705 142.3231,146.1215 145.9921,147.2405 C138.2671,154.5905 146.4411,164.8055 144.7871,172.5355 C140.8321,191.0235 123.1711,194.3035 102.6281,200.2405 C104.6541,206.4445 110.9481,208.3835 117.6851,209.8775 M285.1201,88.2165 C282.9131,92.6325 280.6041,96.9505 278.4951,101.4665 C289.9951,103.8975 306.1571,106.6705 320.0541,108.6935 C321.5091,103.1235 322.2291,96.8175 321.8591,89.4205 C308.4641,89.0035 296.6361,88.4995 285.1201,88.2165 M270.0621,13.5335 C264.3801,26.5215 258.3701,39.1835 251.9941,51.4775 C257.6031,51.4895 262.1051,52.6075 266.4481,53.8865 C273.6021,43.1715 280.2701,31.9715 285.7211,19.5555 C280.5051,17.5445 276.1631,14.6585 270.0621,13.5335 M211.0381,30.9995 C196.5701,44.7315 182.6461,61.0105 168.2761,73.1595 C165.7571,84.6935 166.9031,99.8925 162.8561,109.8975 C161.7821,100.5595 162.9941,88.3785 163.4581,78.5795 C155.5391,84.3115 160.5921,103.0165 154.4231,110.5005 C154.2671,101.9125 154.7121,93.9255 155.6271,86.4095 C139.8281,98.7155 125.3901,112.3845 110.4561,125.5585 C103.0151,149.5525 114.1961,174.8245 128.5261,186.3885 C134.5171,180.2465 140.9821,176.0415 138.7651,165.3085 C137.8931,161.0915 133.4381,158.6215 132.7421,153.8645 C128.5761,125.3995 174.8991,125.2725 171.2871,156.2735 C170.9731,158.9785 168.8891,161.1495 168.2761,163.5025 C164.9811,176.1335 162.3881,189.0145 153.2191,197.2295 C159.2151,198.0245 164.2321,199.3375 170.6851,196.6265 C180.5841,192.4695 191.1061,186.2515 202.0051,180.9685 C222.9971,170.7885 245.9921,161.4685 267.0521,152.0585 C289.4581,142.0455 312.6471,134.3775 318.2441,110.5005 C301.6791,109.5005 288.8551,105.4315 274.2791,103.8745 C268.7651,107.5845 263.5551,111.0245 255.6081,110.5005 C251.4731,110.2275 248.2141,106.6245 244.7661,106.8875 C240.6041,107.2045 233.3191,113.8475 228.5051,116.5235 C219.9511,121.2775 202.1151,129.4185 199.5951,115.9205 C196.3201,98.3785 221.1281,93.3455 229.7091,85.2045 C228.1321,68.8545 234.5581,55.6085 248.3811,52.6815 C254.7471,39.9765 261.3661,27.5225 266.4481,13.5335 C241.0671,9.1345 222.9331,19.7075 211.0381,30.9995 M300.7781,14.7375 C296.9351,29.3455 288.0291,38.8965 281.3921,50.0215 C277.9441,55.8035 273.2371,60.6875 268.8571,66.5335 C265.3941,65.0785 262.4751,64.1795 258.6191,63.5225 C244.2041,61.0665 234.6531,71.9795 239.9481,88.2165 C230.5201,96.4505 209.0821,98.4375 211.0381,114.1145 C224.7691,109.5755 234.2151,102.9845 245.0041,95.5055 C248.4311,98.9685 250.7341,101.3535 254.7281,102.0935 C271.6691,105.2305 273.6091,91.4275 274.2791,77.9775 C293.3601,74.9845 313.0581,75.7735 334.5081,77.9775 C339.7271,102.0415 327.4421,125.7445 315.2351,140.0125 C276.1891,162.5535 231.4481,178.8025 187.5501,199.0365 C178.7361,203.0995 169.5921,209.3895 162.2531,210.4795 C158.3181,211.0635 154.4221,208.9735 150.8101,209.2755 C144.2151,209.8265 138.2151,216.0865 131.5371,217.1055 C131.1431,219.3395 132.1181,223.3045 131.5371,223.7295 C119.1741,228.8635 103.2861,232.3845 98.4121,246.6165 C97.2721,247.8125 95.5661,246.9095 94.1951,246.6165 C93.7501,251.4785 95.1741,254.4725 94.7981,259.2645 C91.1491,261.3635 90.8211,264.0755 87.5711,265.2875 C82.2711,267.2655 75.3631,263.6655 69.5011,265.2875 C64.8731,266.5685 60.2511,280.4195 58.0581,285.7645 C54.4691,294.5205 52.7631,301.5055 50.8311,309.8565 C48.4271,320.2495 45.8211,333.9195 44.8081,344.7895 C39.9851,396.5525 55.6171,443.4915 70.7061,476.6885 C74.7451,482.0865 78.0331,488.2325 82.1501,493.5545 C94.6081,482.3565 125.4741,462.3225 143.5831,477.2915 C148.9721,481.7465 150.2221,489.2805 155.0261,495.3595 C165.8851,493.0145 174.0421,502.4965 175.5051,513.4285 C188.2861,515.0995 196.4931,521.3485 200.1971,532.0985 C214.5161,530.4285 220.7551,536.8375 226.6981,543.5425 C237.4161,537.9805 250.6791,543.9405 256.8121,550.1675 C269.4101,545.2235 283.6801,547.7585 291.7441,555.5875 C298.7861,550.6575 313.2861,549.3455 321.8591,553.7815 C328.5121,547.9365 339.6451,542.7075 351.3711,547.1555 C357.8601,539.9555 366.1941,531.5165 381.4841,535.1105 C389.6601,527.7045 396.8251,519.0145 411.5981,521.2595 C413.7871,510.1935 422.7231,505.8795 432.6801,502.5865 C435.3681,493.2305 439.2421,485.0605 448.3401,482.1085 C449.6711,473.2035 451.7251,469.1105 457.0591,464.0915 C460.1951,462.2085 461.8721,461.9525 463.9971,461.6305 C461.9351,449.5585 465.9671,439.9175 472.4311,434.5295 C471.8631,424.3265 472.8811,415.7075 477.2481,410.4385 C474.0961,402.9045 476.9391,391.5155 480.2601,385.1425 C478.4821,378.2755 476.7091,369.0095 479.6571,362.2545 C476.4371,355.3485 472.1271,350.5455 471.2241,342.3795 C470.9571,339.9565 471.8531,337.2575 471.2241,334.5495 C469.6061,327.5685 459.2741,321.5795 462.1901,311.6625 C452.4751,306.3215 443.2301,300.5105 444.7241,283.9585 C438.3891,279.0505 431.3021,274.8955 429.6671,265.2875 C418.3331,265.7085 407.4841,259.6885 403.7681,249.0255 C395.1931,249.7415 387.1771,246.9265 382.0881,242.4015 C372.8701,245.1005 360.2151,241.2265 353.7801,235.7755 C347.2951,238.8695 339.3141,240.0405 330.8911,239.3885 C326.4431,246.5335 312.2081,252.3435 302.5871,248.4235 C297.6531,253.5285 290.8011,256.7155 282.7111,258.6625 C277.7911,265.3875 272.1871,271.4275 262.2341,273.1165 C260.3541,283.2855 252.8411,287.8165 243.5611,290.5825 C242.1001,300.5645 237.3521,307.2605 232.1201,313.4705 C233.4121,323.0905 229.1921,335.2085 222.4821,340.5745 C224.3331,349.4035 221.9931,357.2215 218.2661,362.2545 C225.1201,383.5045 210.8481,399.8045 193.5721,404.4145 C199.7281,422.5515 215.3611,431.2095 232.1201,438.7465 C235.7431,430.1225 239.4361,421.5695 250.7891,420.6775 C253.6291,424.4625 257.8991,426.8185 261.6301,429.7105 C266.5651,423.8095 279.6841,427.7455 287.5291,423.6895 C293.3011,420.7025 296.6461,416.0725 303.1871,421.8805 C300.8911,412.8675 305.9411,404.2545 311.0161,398.9935 C309.5891,389.8545 309.6351,376.8535 312.8251,367.6755 C315.0461,366.7965 317.7491,368.1785 320.0541,366.4695 C322.7311,351.4815 325.9641,337.0465 330.2921,323.7075 C330.1621,320.4255 325.7631,321.4125 325.4741,318.2885 C329.9481,304.1875 333.4611,292.0375 343.5401,283.9585 C375.5471,258.3115 435.9671,274.4625 437.4981,320.0955 C438.3001,343.9575 428.7831,359.2085 419.4291,374.2995 C408.0501,392.6585 392.4251,409.5685 374.8601,420.0745 C380.2341,443.0245 366.8121,462.6165 342.3371,459.8255 C336.3131,459.1385 329.4111,455.8495 321.8591,459.8255 C320.2521,461.5035 321.2331,468.0565 318.8471,470.6665 C314.9141,474.9665 306.4451,471.4165 299.5741,472.4725 C292.4771,473.5635 288.0291,480.7925 283.9151,480.9055 C279.4481,481.0275 277.1431,475.0015 274.2791,474.2795 C246.8111,479.8935 219.0171,474.4615 198.3911,461.0305 C178.6721,448.1885 160.3401,428.0345 153.2191,406.8235 C151.4201,401.4635 152.5941,395.2945 150.8101,388.1545 C148.8041,380.1215 141.9251,377.5325 141.7771,367.0735 C141.6811,360.4445 145.6441,355.3325 145.9921,350.2095 C146.2061,347.0455 143.8591,343.8895 143.5831,340.5745 C142.3601,325.9085 148.9431,314.7885 158.0371,306.8445 C158.6031,289.7445 164.9991,278.4735 175.5051,271.3105 C178.3841,257.5275 184.6481,247.1275 195.9811,241.7975 C199.5081,225.6495 206.2331,212.7015 223.6861,210.4795 C230.1471,201.0535 235.9291,189.2965 249.5851,187.5925 C252.1341,187.2755 255.1821,188.5205 258.1801,188.9855 C260.8271,185.3845 263.9121,180.3475 268.2561,177.9565 C276.3201,173.5195 288.4701,172.9885 297.1651,174.9445 C306.1311,167.2405 323.7461,159.7765 338.7231,167.1155 C348.6721,161.1085 364.1621,158.0205 374.2571,165.3085 C387.0271,158.4675 405.5621,164.6535 413.4071,171.9335 C432.6411,168.2385 449.4691,175.0675 454.9641,190.0015 C471.4181,191.4165 481.0611,199.6395 485.0781,213.4915 C501.0961,218.1515 512.3171,227.6075 513.9861,246.6165 C522.4611,251.5245 533.0991,257.0715 535.0681,268.9015 C535.3421,270.5525 534.4091,273.0235 535.0681,274.9245 C536.2291,278.2675 540.1251,279.5835 542.2951,282.1515 C548.1951,289.1365 552.4061,302.7265 548.3171,311.6625 C553.9701,318.5815 560.9541,325.2255 562.1701,336.9585 C562.5251,340.3825 560.8361,344.7565 561.5671,348.4035 C562.1841,351.4765 565.0781,352.8255 566.3871,355.0285 C572.2071,364.8285 570.1781,382.8215 563.3751,390.5635 C570.3031,402.5225 565.8111,421.4665 559.1581,430.3135 C564.2111,445.0415 557.8641,461.7415 548.9211,468.2575 C550.7291,487.6625 540.8531,500.2495 529.6461,508.6105 C529.6431,526.0725 522.8051,536.7015 510.9771,542.3365 C508.1661,554.5855 499.9571,561.4305 488.6921,565.2245 C483.7681,581.7845 475.4801,594.9775 453.7581,594.7355 C446.6611,606.0805 435.9161,616.8115 417.6221,613.4085 C411.0871,625.7745 393.0691,635.9675 376.0631,630.2715 C368.3361,642.7775 348.0061,651.9475 329.6891,644.7275 C321.0571,652.9975 296.4371,657.1325 285.7211,647.7365 C272.8101,658.5295 245.1291,655.0595 234.5291,644.1245 C213.2351,648.6705 197.3491,639.7715 186.3451,630.2715 C167.5871,632.5575 154.6281,620.2675 144.7871,609.7925 C126.5981,608.7085 116.7121,599.3245 108.6501,588.1115 C93.3751,584.9165 85.1261,574.6965 79.1381,562.2125 C62.1531,555.2935 51.4151,534.0065 42.3991,517.6445 C29.5231,494.2785 20.5751,471.6645 12.2851,444.7675 C4.4151,414.9355 -0.8389,379.3775 0.8421,342.3795 C3.2531,289.2975 19.9691,246.1235 46.0131,216.5025 C48.7201,216.5995 48.6941,213.9645 50.8311,213.4915 C51.1091,208.3485 50.2001,202.0195 51.4341,197.8315 C67.5971,194.5205 82.5511,190.0015 83.9571,171.9335 C86.0971,171.4385 90.6491,172.0165 93.5931,172.5355 C96.4881,171.4145 95.5931,166.5055 97.8101,164.7065 C96.3911,162.1095 95.9051,158.5795 94.1951,156.2735 C90.4081,139.0015 95.9941,120.9375 105.0371,111.1025 C129.8331,88.7965 158.4801,62.5245 184.5371,38.8285 C193.4721,30.7055 201.4281,21.6185 209.8331,14.1355 C230.2901,-4.0725 278.5831,-3.2825 300.7781,14.7375" id="Fill-73" fill="#000000"></path>
            <path d="M174.3003,75.5684 C175.2713,75.3984 175.3363,76.1374 176.1053,76.1704 C176.5033,85.7424 175.0193,94.8444 173.6963,104.4784 C171.6123,95.4784 171.8843,82.1624 174.3003,75.5684" id="Fill-75" fill="#000000"></path>
            <path d="M182.7319,83.397 C183.7039,83.228 183.7679,83.967 184.5369,84 C184.3749,86.045 185.0049,88.883 183.9359,90.023 C180.2879,90.004 182.1639,85.712 182.7319,83.397" id="Fill-77" fill="#000000"></path>
            <path d="M152,181 C152,181 163.5,156.5 153,153 C142.5,149.5 155.5,163 152,181" id="Fill-79" fill="#FFFFFF"></path>
            <path d="M28.5,388 C28.5,388 15.5,350.5 29.5,297 C37.697,265.674 53.5,243.5 55.5,245.5 C57.5,247.5 40.735,272.928 34,296.5 C19,349 30,370 28.5,388" id="Fill-81" fill="#FFFFFF"></path>
            <path d="M130,521 C130,521 135.5,503.5 130,496 C124.5,488.5 148,490.5 130,521" id="Fill-83" fill="#FFFFFF"></path>
            <path d="M153.5,542 C153.5,542 164,524.5 157.5,516 C151,507.5 156.5,522 153.5,542" id="Fill-85" fill="#FFFFFF"></path>
            <path d="M179.5,566.5 C179.5,566.5 192.5,543 181.5,533 C170.5,523 183,541 179.5,566.5" id="Fill-87" fill="#FFFFFF"></path>
            <path d="M212,584 C212,584 221,562 209.5,552.5 C198,543 214,562 212,584" id="Fill-89" fill="#FFFFFF"></path>
            <path d="M247.5,593 C247.5,593 252,567.5 238,559 C224,550.5 246,577 247.5,593" id="Fill-91" fill="#FFFFFF"></path>
            <path d="M288,598 C288,598 290.5,578 276,568 C261.5,558 287,587 288,598" id="Fill-93" fill="#FFFFFF"></path>
            <path d="M325,594 C325,594 323,564.5 309,566.5 C295,568.5 316.5,571 325,594" id="Fill-95" fill="#FFFFFF"></path>
            <path d="M363.5,584.5 C363.5,584.5 360.5,567 348.5,562.5 C336.5,558 356.5,573.5 363.5,584.5" id="Fill-97" fill="#FFFFFF"></path>
            <path d="M401,576 C401,576 395,551 381,551.5 C367,552 391.5,560 401,576" id="Fill-99" fill="#FFFFFF"></path>
            <path d="M435,558.5 C435,558.5 428.5,539.5 414,538 C399.5,536.5 426,549.5 435,558.5" id="Fill-101" fill="#FFFFFF"></path>
            <path d="M461.5,538.5 C461.5,538.5 455,524.5 441,520 C427,515.5 446.5,529 461.5,538.5" id="Fill-103" fill="#FFFFFF"></path>
            <path d="M488,519 C488,519 485.842,507.255 469.5,499.5 C463,496 458.5,498.5 463.5,503 C468.5,507.5 479,510 488,519" id="Fill-105" fill="#FFFFFF"></path>
            <path d="M507.5,496.5 C507.5,496.5 505.5,486 495.5,479.5 C485.5,473 476,475 480.5,480.5 C485,486 495,483.5 507.5,496.5" id="Fill-107" fill="#FFFFFF"></path>
            <path d="M528.5,470.5 C528.5,470.5 525.5,454 507.5,449.5 C499,447.5 500,451.5 509.5,456 C519,460.5 521,460 528.5,470.5" id="Fill-109" fill="#FFFFFF"></path>
            <path d="M542.5,444.5 C542.5,444.5 543,432 534,425 C525,418 520,419 523.5,423.5 C527,428 537.5,432.5 542.5,444.5" id="Fill-111" fill="#FFFFFF"></path>
            <path d="M549.043,412.6221 C549.043,412.6221 552.542,404.2931 545.821,396.7341 C539.1,389.1761 522.024,385.5321 529.082,391.9971 C537,399.2501 546.25,398.5001 549.043,412.6221" id="Fill-113" fill="#FFFFFF"></path>
            <path d="M552.500577,377 C552.500577,377 552.750194,358 535.250061,352.5 C517.749928,347 533.750049,359 538.000082,362 C542.250114,365 547.750156,367 552.500577,377" id="Fill-115" fill="#FFFFFF"></path>
            <path d="M544.5,341 C544.5,341 547.5,330.5 534.5,320 C521.5,309.5 521.5,321 529,323.5 C536.5,326 540,332.5 544.5,341" id="Fill-117" fill="#FFFFFF"></path>
            <path d="M532.5,297.5 C532.5,297.5 529.5,284.5 516,282.5 C502.5,280.5 507,287.5 514,287.5 C521,287.5 532.5,297.5 532.5,297.5" id="Fill-119" fill="#FFFFFF"></path>
            <path d="M396,179.5 C396,179.5 387.5,174 381,179.5 C374.5,185 396,179.5 396,179.5" id="Fill-121" fill="#FFFFFF"></path>
            <path d="M438.5,193 C438.5,193 429.5,183 417,188 C404.5,193 431.673,189.373 438.5,193" id="Fill-123" fill="#FFFFFF"></path>
            <path d="M467,215.5 C467,215.5 463,205.5 450.5,208.5 C438,211.5 449,212 455.5,213 C462,214 467,215.5 467,215.5" id="Fill-125" fill="#FFFFFF"></path>
            <path d="M497.5,240 C497.5,240 495.5,231 484,229.5 C472.5,228 474,230 483.5,233.5 C493,237 497.5,240 497.5,240" id="Fill-127" fill="#FFFFFF"></path>
            <path d="M518,271 C518,271 513.5,261.5 502.5,260 C491.5,258.5 509.5,266 518,271" id="Fill-129" fill="#FFFFFF"></path>
        </g>
    </g>
</svg>